{
  "accessors": [
    {
      "bufferView": 2,
      "componentType": 5126,
      "count": 65532,
      "max": [
        0.6664900183677673,
        0.3832780122756958,
        0.815159022808075
      ],
      "min": [
        -0.7838169932365417,
        0.14354099333286285,
        -0.9885609745979309
      ],
      "type": "VEC3"
    },
    {
      "bufferView": 2,
      "byteOffset": 786384,
      "componentType": 5126,
      "count": 65532,
      "max": [
        0.999995768070221,
        0.9999998807907104,
        0.9999951124191284
      ],
      "min": [
        -0.9999873638153076,
        -0.9999977350234985,
        -0.9999477863311768
      ],
      "type": "VEC3"
    },
    {
      "bufferView": 3,
      "componentType": 5126,
      "count": 65532,
      "max": [
        0.999988853931427,
        0.9999008178710938,
        0.9999156594276428,
        1.0
      ],
      "min": [
        -0.9999377727508545,
        -0.9998927116394043,
        -0.9999995231628418,
        1.0
      ],
      "type": "VEC4"
    },
    {
      "bufferView": 1,
      "componentType": 5126,
      "count": 65532,
      "max": [
        0.9980400204658508,
        0.9911999702453613
      ],
      "min": [
        0.0552700012922287,
        0.03945000097155571
      ],
      "type": "VEC2"
    },
    {
      "bufferView": 0,
      "componentType": 5125,
      "count": 384975,
      "type": "SCALAR"
    },
    {
      "bufferView": 2,
      "byteOffset": 1572768,
      "componentType": 5126,
      "count": 65532,
      "max": [
        0.9538570046424866,
        0.33385100960731506,
        0.7902389764785767
      ],
      "min": [
        -0.9852290153503418,
        -0.18256300687789917,
        -1.0782899856567383
      ],
      "type": "VEC3"
    },
    {
      "bufferView": 2,
      "byteOffset": 2359152,
      "componentType": 5126,
      "count": 65532,
      "max": [
        0.9999352097511292,
        0.9999992251396179,
        0.9999643564224243
      ],
      "min": [
        -0.9991363286972046,
        -1.0,
        -0.9999983310699463
      ],
      "type": "VEC3"
    },
    {
      "bufferView": 3,
      "byteOffset": 1048512,
      "componentType": 5126,
      "count": 65532,
      "max": [
        0.999721348285675,
        0.9996596574783325,
        0.9999858736991882,
        1.0
      ],
      "min": [
        -0.997752845287323,
        -0.9995841979980469,
        -0.9999873042106628,
        1.0
      ],
      "type": "VEC4"
    },
    {
      "bufferView": 1,
      "byteOffset": 524256,
      "componentType": 5126,
      "count": 65532,
      "max": [
        0.9761599898338318,
        0.9450100064277649
      ],
      "min": [
        0.008840000256896019,
        0.004459999967366457
      ],
      "type": "VEC2"
    },
    {
      "bufferView": 0,
      "byteOffset": 1539900,
      "componentType": 5125,
      "count": 367200,
      "type": "SCALAR"
    },
    {
      "bufferView": 2,
      "byteOffset": 3145536,
      "componentType": 5126,
      "count": 65532,
      "max": [
        0.9493839740753174,
        0.37267500162124634,
        1.0735729932785034
      ],
      "min": [
        -0.9715620279312134,
        -0.18269500136375427,
        -1.0509949922561646
      ],
      "type": "VEC3"
    },
    {
      "bufferView": 2,
      "byteOffset": 3931920,
      "componentType": 5126,
      "count": 65532,
      "max": [
        0.9990872144699097,
        0.9999930262565613,
        0.9995805025100708
      ],
      "min": [
        -0.9998655915260315,
        -1.0,
        -0.9989297389984131
      ],
      "type": "VEC3"
    },
    {
      "bufferView": 3,
      "byteOffset": 2097024,
      "componentType": 5126,
      "count": 65532,
      "max": [
        0.999911367893219,
        0.9992995262145996,
        0.997629702091217,
        1.0
      ],
      "min": [
        -0.9999743700027466,
        -0.9993453025817871,
        -0.9999901652336121,
        1.0
      ],
      "type": "VEC4"
    },
    {
      "bufferView": 1,
      "byteOffset": 1048512,
      "componentType": 5126,
      "count": 65532,
      "max": [
        0.9222999811172485,
        0.9792600274085999
      ],
      "min": [
        0.0019499999471008778,
        0.0019499999471008778
      ],
      "type": "VEC2"
    },
    {
      "bufferView": 0,
      "byteOffset": 3008700,
      "componentType": 5125,
      "count": 359430,
      "type": "SCALAR"
    },
    {
      "bufferView": 2,
      "byteOffset": 4718304,
      "componentType": 5126,
      "count": 23620,
      "max": [
        0.3638460040092468,
        -0.056825000792741776,
        0.31447499990463257
      ],
      "min": [
        -0.497065007686615,
        -0.18589100241661072,
        -0.5817270278930664
      ],
      "type": "VEC3"
    },
    {
      "bufferView": 2,
      "byteOffset": 5001744,
      "componentType": 5126,
      "count": 23620,
      "max": [
        0.9997983574867249,
        0.9999966621398926,
        0.9999996423721313
      ],
      "min": [
        -0.9999023675918579,
        -0.9999977350234985,
        -0.9999443292617798
      ],
      "type": "VEC3"
    },
    {
      "bufferView": 3,
      "byteOffset": 3145536,
      "componentType": 5126,
      "count": 23620,
      "max": [
        0.9988762736320496,
        0.9977433681488037,
        0.9998167157173157,
        1.0
      ],
      "min": [
        -0.9998353719711304,
        -0.9993060231208801,
        -0.9955893158912659,
        1.0
      ],
      "type": "VEC4"
    },
    {
      "bufferView": 1,
      "byteOffset": 1572768,
      "componentType": 5126,
      "count": 23620,
      "max": [
        0.9423400163650513,
        0.9871699810028076
      ],
      "min": [
        0.05195000022649765,
        0.6497300267219543
      ],
      "type": "VEC2"
    },
    {
      "bufferView": 0,
      "byteOffset": 4446420,
      "componentType": 5125,
      "count": 128043,
      "type": "SCALAR"
    }
  ],
  "asset": {
    "extras": {
      "author": "Ziaraallman_3D (https://sketchfab.com/Ziaraallman)",
      "license": "CC-BY-4.0 (http://creativecommons.org/licenses/by/4.0/)",
      "source": "https://sketchfab.com/3d-models/chocolate-chip-cookie-6ece4a093c654dfe97deabcb42e08b92",
      "title": "Chocolate Chip Cookie"
    },
    "generator": "Sketchfab-12.68.0",
    "version": "2.0"
  },
  "bufferViews": [
    {
      "buffer": 0,
      "byteLength": 4958592,
      "name": "floatBufferViews",
      "target": 34963
    },
    {
      "buffer": 0,
      "byteLength": 1761728,
      "byteOffset": 4958592,
      "byteStride": 8,
      "name": "floatBufferViews",
      "target": 34962
    },
    {
      "buffer": 0,
      "byteLength": 5285184,
      "byteOffset": 6720320,
      "byteStride": 12,
      "name": "floatBufferViews",
      "target": 34962
    },
    {
      "buffer": 0,
      "byteLength": 3523456,
      "byteOffset": 12005504,
      "byteStride": 16,
      "name": "floatBufferViews",
      "target": 34962
    }
  ],
  "buffers": [
    {
      "byteLength": 15528960,
      "uri": "cookie.bin"
    }
  ],
  "images": [
    {
      "uri": "textures/lambert2_baseColor.jpeg"
    },
    {
      "uri": "textures/lambert2_metallicRoughness.png"
    },
    {
      "uri": "textures/lambert2_normal.png"
    }
  ],
  "materials": [
    {
      "name": "lambert2",
      "normalTexture": {
        "index": 2
      },
      "occlusionTexture": {
        "index": 1
      },
      "pbrMetallicRoughness": {
        "baseColorTexture": {
          "index": 0
        },
        "metallicRoughnessTexture": {
          "index": 1
        }
      }
    }
  ],
  "meshes": [
    {
      "name": "defaultMaterial",
      "primitives": [
        {
          "attributes": {
            "NORMAL": 1,
            "POSITION": 0,
            "TANGENT": 2,
            "TEXCOORD_0": 3
          },
          "indices": 4,
          "material": 0,
          "mode": 4
        }
      ]
    },
    {
      "name": "defaultMaterial",
      "primitives": [
        {
          "attributes": {
            "NORMAL": 6,
            "POSITION": 5,
            "TANGENT": 7,
            "TEXCOORD_0": 8
          },
          "indices": 9,
          "material": 0,
          "mode": 4
        }
      ]
    },
    {
      "name": "defaultMaterial",
      "primitives": [
        {
          "attributes": {
            "NORMAL": 11,
            "POSITION": 10,
            "TANGENT": 12,
            "TEXCOORD_0": 13
          },
          "indices": 14,
          "material": 0,
          "mode": 4
        }
      ]
    },
    {
      "name": "defaultMaterial",
      "primitives": [
        {
          "attributes": {
            "NORMAL": 16,
            "POSITION": 15,
            "TANGENT": 17,
            "TEXCOORD_0": 18
          },
          "indices": 19,
          "material": 0,
          "mode": 4
        }
      ]
    }
  ],
  "nodes": [
    {
      "children": [
        1
      ],
      "matrix": [
        1.0,
        0.0,
        0.0,
        0.0,
        0.0,
        2.220446049250313e-16,
        -1.0,
        0.0,
        0.0,
        1.0,
        2.220446049250313e-16,
        0.0,
        0.0,
        0.0,
        0.0,
        1.0
      ],
      "name": "Sketchfab_model"
    },
    {
      "children": [
        2
      ],
      "matrix": [
        1.0,
        0.0,
        0.0,
        0.0,
        0.0,
        -4.371139006309477e-08,
        0.999999999999999,
        0.0,
        0.0,
        -0.999999999999999,
        -4.371139006309477e-08,
        0.0,
        0.0,
        0.0,
        0.0,
        1.0
      ],
      "name": "Collada visual scene group"
    },
    {
      "children": [
        3,
        4,
        5,
        6
      ],
      "name": "COOKIE_low_poly1"
    },
    {
      "mesh": 0,
      "name": "defaultMaterial"
    },
    {
      "mesh": 1,
      "name": "defaultMaterial"
    },
    {
      "mesh": 2,
      "name": "defaultMaterial"
    },
    {
      "mesh": 3,
      "name": "defaultMaterial"
    }
  ],
  "samplers": [
    {
      "magFilter": 9729,
      "minFilter": 9987,
      "wrapS": 10497,
      "wrapT": 10497
    }
  ],
  "scene": 0,
  "scenes": [
    {
      "name": "Sketchfab_Scene",
      "nodes": [
        0
      ]
    }
  ],
  "textures": [
    {
      "sampler": 0,
      "source": 0
    },
    {
      "sampler": 0,
      "source": 1
    },
    {
      "sampler": 0,
      "source": 2
    }
  ]
}
